<?xml version="1.0" encoding="UTF-8" ?>
<!DOCTYPE svg PUBLIC "-//W3C//DTD SVG 1.1//EN" "http://www.w3.org/Graphics/SVG/1.1/DTD/svg11.dtd">
<svg width="330pt" height="150pt" viewBox="0 0 330 150" version="1.1" xmlns="http://www.w3.org/2000/svg">
<g id="#205684ff">
<path fill="#205684" opacity="1.00" d=" M 26.94 38.27 C 29.23 36.24 31.64 33.54 35.02 33.92 C 38.26 33.31 40.89 35.31 43.21 37.26 C 43.05 38.92 42.71 40.55 42.10 42.11 C 39.97 40.79 37.89 38.66 35.18 38.94 C 33.94 39.49 32.99 40.50 31.91 41.29 C 35.43 45.03 39.28 48.47 42.66 52.34 C 46.58 57.09 41.89 63.72 36.83 65.05 C 32.40 65.19 27.81 63.19 25.08 59.64 C 24.20 57.32 26.64 55.99 27.96 54.55 C 29.47 55.96 30.88 57.47 32.48 58.78 C 34.28 59.05 36.77 59.59 37.81 57.62 C 37.95 56.52 38.04 55.42 38.09 54.31 C 34.67 51.28 30.44 49.00 27.92 45.07 C 26.51 43.08 27.09 40.54 26.94 38.27 Z" />
<path fill="#205684" opacity="1.00" d=" M 53.62 38.81 C 59.62 31.52 72.48 32.68 77.06 40.94 C 79.93 44.94 79.10 50.07 78.83 54.67 C 77.22 57.92 74.34 60.31 71.66 62.66 C 68.01 65.09 63.28 63.76 59.16 63.94 C 51.45 61.35 46.54 51.50 49.89 43.91 C 51.54 40.74 55.28 39.56 58.65 40.00 C 59.42 40.79 60.19 41.57 60.97 42.35 C 60.98 42.98 61.01 44.23 61.03 44.86 C 59.05 45.23 56.47 44.39 55.12 46.30 C 54.96 48.71 54.85 51.17 55.24 53.57 C 56.84 55.42 58.58 57.16 60.42 58.77 C 63.94 59.22 68.04 59.50 70.76 56.76 C 73.89 54.34 74.75 50.05 73.72 46.37 C 72.69 43.82 70.47 42.07 68.69 40.07 C 63.59 40.48 58.66 39.11 53.62 38.81 Z" />
<path fill="#205684" opacity="1.00" d=" M 91.30 36.26 C 97.52 32.93 105.83 33.00 111.05 38.19 C 111.03 39.38 111.02 40.58 111.00 41.78 C 110.52 42.13 109.57 42.83 109.09 43.18 C 105.46 39.31 100.14 39.88 95.34 40.07 C 93.57 42.09 91.34 43.82 90.30 46.38 C 89.50 49.56 89.78 53.33 92.25 55.76 C 96.20 60.58 104.02 59.98 108.20 55.75 C 109.30 56.84 110.40 57.94 111.49 59.05 C 108.24 63.06 103.01 64.71 97.97 64.06 C 90.07 64.55 84.17 56.42 84.92 49.00 C 84.27 43.90 87.42 39.24 91.30 36.26 Z" />
<path fill="#205684" opacity="1.00" d=" M 119.07 36.27 C 120.07 34.40 122.28 35.10 124.00 34.90 C 124.01 44.61 124.00 54.31 124.00 64.01 C 122.34 64.00 120.68 64.00 119.03 64.00 C 119.04 54.76 118.88 45.51 119.07 36.27 Z" />
<path fill="#205684" opacity="1.00" d=" M 143.29 35.00 C 144.77 35.00 146.24 34.99 147.72 34.98 C 150.54 44.89 155.36 54.14 158.27 64.01 C 156.60 64.01 154.92 64.07 153.26 63.91 C 151.74 62.29 151.50 59.97 150.70 57.98 C 147.48 57.78 144.08 57.72 141.74 60.31 C 140.83 59.20 139.96 58.05 139.11 56.90 C 137.91 59.22 136.95 61.65 135.91 64.05 C 134.19 64.01 132.46 63.99 130.74 63.95 C 131.09 61.02 132.78 58.55 133.83 55.86 C 136.15 50.09 138.24 44.23 140.33 38.38 C 141.22 37.17 142.29 36.11 143.29 35.00 M 139.71 55.07 C 142.04 52.95 145.13 52.83 148.11 52.83 C 148.22 49.41 146.29 46.50 144.58 43.70 C 142.29 47.16 141.68 51.42 139.71 55.07 Z" />
<path fill="#205684" opacity="1.00" d=" M 167.33 35.00 C 168.55 34.99 169.77 34.99 171.00 34.98 C 171.02 42.98 170.98 50.99 171.02 58.99 C 174.35 59.00 177.68 59.00 181.01 59.00 C 181.00 60.66 181.00 62.33 181.01 64.00 C 175.67 64.01 170.33 64.01 164.99 64.01 C 165.00 55.11 164.99 46.21 165.00 37.31 C 165.78 36.54 166.56 35.78 167.33 35.00 Z" />
<path fill="#205684" opacity="1.00" d=" M 216.49 82.82 C 220.70 79.42 226.13 76.70 231.64 78.24 C 237.81 80.84 243.80 86.84 243.09 94.01 C 243.35 99.97 238.59 105.09 233.66 107.79 C 229.92 108.20 226.08 108.21 222.34 107.78 C 218.28 105.32 213.85 101.83 213.08 96.84 C 212.83 94.00 213.00 91.16 213.00 88.32 C 214.53 86.93 215.99 85.46 217.37 83.93 C 220.16 83.67 222.78 84.50 225.06 86.09 C 225.04 86.78 225.01 88.16 225.00 88.86 C 222.34 88.79 219.69 89.16 217.87 91.28 C 217.96 95.12 218.73 99.54 222.34 101.66 C 226.98 104.40 234.91 103.53 236.67 97.64 C 237.25 93.66 237.73 88.63 234.26 85.75 C 231.51 83.32 227.68 84.43 224.41 83.62 C 221.81 83.00 219.13 83.04 216.49 82.82 Z" />
<path fill="#205684" opacity="1.00" d=" M 283.05 88.34 C 287.52 84.51 290.24 76.78 297.41 77.95 C 294.79 82.94 291.32 87.53 287.12 91.30 C 290.76 96.92 295.25 101.98 298.40 107.92 C 296.35 107.98 294.31 108.00 292.26 108.01 C 289.18 103.90 286.62 99.37 283.08 95.64 C 282.94 99.76 283.03 103.88 282.99 108.01 C 281.33 108.00 279.68 108.00 278.03 108.00 C 277.98 98.34 277.98 88.67 278.02 79.00 C 279.68 79.00 281.33 79.00 282.99 78.99 C 283.01 82.11 282.97 85.22 283.05 88.34 Z" />
<path fill="#205684" opacity="1.00" d=" M 28.34 79.00 C 30.54 78.99 32.74 78.98 34.93 78.94 C 37.74 82.53 37.71 87.49 34.90 91.07 C 32.74 91.01 30.55 91.17 28.41 90.79 C 27.21 89.83 26.12 88.74 24.99 87.70 C 25.00 85.92 25.00 84.14 25.00 82.36 C 26.14 81.27 27.26 80.15 28.34 79.00 Z" />
<path fill="#205684" opacity="1.00" d=" M 45.35 79.00 C 47.12 79.00 48.88 79.00 50.64 79.00 C 51.74 80.15 52.86 81.28 54.02 82.37 C 54.34 85.47 53.77 88.53 51.92 91.08 C 48.44 91.21 44.83 91.13 41.93 88.93 C 41.98 86.73 42.00 84.54 42.03 82.35 C 43.17 81.26 44.27 80.14 45.35 79.00 Z" />
<path fill="#205684" opacity="1.00" d=" M 58.95 81.09 C 61.48 79.18 64.54 78.65 67.64 78.98 C 68.73 80.13 69.85 81.25 71.00 82.35 C 71.00 84.13 71.00 85.91 71.01 87.70 C 69.39 88.90 68.21 91.24 65.92 91.00 C 64.39 91.07 62.86 91.03 61.33 91.01 C 60.57 90.21 59.80 89.43 59.02 88.65 C 59.00 86.13 58.99 83.61 58.95 81.09 Z" />
<path fill="#205684" opacity="1.00" d=" M 95.11 80.26 C 96.08 78.55 98.11 79.07 99.75 78.89 C 104.36 84.32 106.76 91.33 111.91 96.34 C 112.09 90.56 111.95 84.77 111.99 78.99 C 113.99 78.99 116.00 78.99 118.00 79.00 C 118.00 88.67 118.01 98.35 118.00 108.02 C 116.42 108.00 114.84 107.99 113.27 107.98 C 107.72 102.72 105.49 94.99 100.08 89.65 C 99.91 95.77 100.05 101.89 100.00 108.01 C 98.34 108.00 96.68 108.00 95.02 108.00 C 95.06 98.76 94.83 89.50 95.11 80.26 Z" />
<path fill="#205684" opacity="1.00" d=" M 126.27 79.06 C 131.18 78.82 136.09 79.06 141.00 79.03 C 141.00 80.68 141.00 82.32 141.00 83.97 C 137.34 84.00 133.68 84.00 130.01 84.01 C 130.01 86.34 130.01 88.66 130.01 90.99 C 133.69 91.00 137.36 90.99 141.03 91.04 C 141.02 91.70 141.00 93.02 140.99 93.68 C 140.21 94.44 139.43 95.22 138.66 96.00 C 135.78 96.00 132.89 96.01 130.01 96.02 C 130.01 98.01 130.01 99.99 130.01 101.98 C 133.68 102.00 137.35 101.99 141.02 102.00 C 141.01 103.99 141.00 105.98 141.00 107.98 C 135.67 108.02 130.34 108.02 125.01 107.98 C 125.06 98.75 124.87 89.50 125.07 80.27 C 125.37 79.97 125.97 79.37 126.27 79.06 Z" />
<path fill="#205684" opacity="1.00" d=" M 147.99 79.00 C 154.79 79.03 161.59 78.92 168.38 79.07 C 167.64 80.75 166.82 82.41 165.95 84.03 C 163.97 84.02 161.99 84.02 160.01 84.02 C 159.98 92.02 160.03 100.01 159.99 108.01 C 158.33 108.00 156.68 108.00 155.03 108.00 C 154.95 100.01 155.04 92.02 154.99 84.03 C 152.66 84.00 150.32 84.00 147.99 83.99 C 147.99 82.32 147.99 80.66 147.99 79.00 Z" />
<path fill="#205684" opacity="1.00" d=" M 173.82 79.04 C 175.49 79.01 177.17 78.99 178.85 78.98 C 180.51 83.49 181.25 88.26 182.06 92.98 C 182.12 94.26 182.85 95.31 183.52 96.34 C 184.74 91.67 186.07 87.04 187.29 82.37 C 188.49 80.31 192.01 77.00 193.69 80.32 C 195.27 85.67 196.19 91.26 198.64 96.32 C 200.53 90.59 199.95 83.68 204.19 78.98 C 205.50 78.98 206.82 78.99 208.14 79.00 C 206.63 83.83 205.79 88.83 204.84 93.79 C 203.89 98.54 202.03 103.12 201.90 108.01 C 199.98 108.01 198.06 108.01 196.15 108.01 C 194.61 103.03 193.12 98.03 191.98 92.95 C 191.79 91.72 191.11 90.67 190.47 89.64 C 189.00 95.79 187.02 101.82 185.81 108.01 C 183.95 108.01 182.09 108.01 180.23 108.00 C 177.83 98.41 175.60 88.75 173.82 79.04 Z" />
<path fill="#205684" opacity="1.00" d=" M 251.36 79.06 C 256.10 79.39 261.38 77.80 265.71 80.28 C 269.83 82.96 269.32 88.44 268.79 92.67 C 267.67 95.16 265.55 96.95 263.78 98.95 C 265.73 102.09 268.06 104.98 270.18 108.02 C 268.25 107.99 266.30 108.14 264.40 107.78 C 260.70 104.97 258.15 101.06 255.09 97.64 C 254.95 101.10 255.01 104.56 255.01 108.01 C 253.00 108.01 251.00 108.01 249.00 108.00 C 249.00 99.11 248.99 90.22 249.00 81.32 C 249.79 80.57 250.57 79.82 251.36 79.06 M 255.02 83.98 C 255.01 86.91 255.02 89.84 255.01 92.77 C 256.59 93.24 258.13 94.13 259.83 94.06 C 262.86 92.78 264.68 89.72 264.03 86.42 C 263.22 85.63 262.42 84.84 261.63 84.04 C 259.43 84.00 257.23 83.99 255.02 83.98 Z" />
<path fill="#205684" opacity="1.00" d=" M 28.35 96.02 C 30.53 96.00 32.72 95.98 34.91 95.94 C 37.71 99.52 37.74 104.48 34.93 108.06 C 32.73 108.02 30.54 108.00 28.35 107.99 C 27.26 106.84 26.14 105.73 25.00 104.64 C 25.00 102.88 25.00 101.12 25.00 99.36 C 26.14 98.27 27.26 97.16 28.35 96.02 Z" />
<path fill="#205684" opacity="1.00" d=" M 41.93 98.07 C 44.82 95.83 48.44 95.79 51.92 95.92 C 53.19 98.04 54.48 100.33 54.06 102.91 C 54.33 105.21 52.01 106.46 50.60 107.86 C 48.87 108.11 47.11 108.00 45.37 108.01 C 44.28 106.86 43.18 105.74 42.04 104.65 C 42.00 102.46 41.98 100.26 41.93 98.07 Z" />
<path fill="#205684" opacity="1.00" d=" M 58.96 98.09 C 61.09 96.86 63.34 95.53 65.91 95.94 C 68.23 95.70 69.38 98.10 71.01 99.31 C 71.00 101.09 71.00 102.86 71.00 104.64 C 69.84 105.74 68.72 106.86 67.63 108.02 C 64.54 108.35 61.50 107.76 58.96 105.92 C 58.99 103.31 59.00 100.70 58.96 98.09 Z" />
</g>
</svg>
