<?xml version="1.0" encoding="UTF-8" ?>
<!DOCTYPE svg PUBLIC "-//W3C//DTD SVG 1.1//EN" "http://www.w3.org/Graphics/SVG/1.1/DTD/svg11.dtd">
<svg width="330pt" height="150pt" viewBox="0 0 330 150" version="1.1" xmlns="http://www.w3.org/2000/svg">
<g id="#fafaf9ff">
<path fill="#fafaf9" opacity="1.00" d=" M 27.23 38.34 C 31.00 33.58 38.65 32.67 42.85 37.34 C 42.64 38.86 42.37 40.36 42.09 41.87 C 40.11 40.19 37.87 38.13 35.07 38.40 C 33.61 39.15 32.71 40.65 31.40 41.63 C 34.70 43.95 37.07 47.28 40.02 49.99 C 41.67 51.66 43.90 53.49 43.67 56.08 C 44.15 60.00 40.59 62.86 37.58 64.70 C 33.03 64.97 28.23 63.13 25.34 59.53 C 24.95 57.43 26.77 56.22 27.98 54.84 C 29.46 56.29 30.98 57.71 32.16 59.41 C 33.80 59.36 35.44 59.36 37.08 59.37 C 37.84 57.70 38.71 56.00 38.42 54.09 C 34.74 50.66 29.55 48.45 27.50 43.54 C 27.37 41.81 27.35 40.07 27.23 38.34 Z" />
<path fill="#fafaf9" opacity="1.00" d=" M 53.83 38.74 C 57.97 34.76 64.42 33.12 69.81 35.33 C 74.16 36.46 76.87 40.56 78.54 44.47 C 78.59 47.84 78.53 51.22 78.59 54.59 C 76.40 58.16 73.21 61.39 69.54 63.46 C 65.84 63.59 62.13 63.52 58.43 63.54 C 53.71 61.05 49.73 56.38 49.32 50.89 C 49.32 48.14 48.68 44.98 50.94 42.89 C 52.85 40.53 55.95 40.32 58.75 40.24 C 59.76 41.55 60.63 42.96 60.98 44.61 C 58.80 44.92 55.98 43.63 54.55 45.90 C 54.59 48.54 54.73 51.18 54.57 53.81 C 56.81 55.26 58.73 57.17 60.08 59.47 C 62.39 59.37 64.70 59.41 67.01 59.38 C 71.15 57.76 75.24 53.79 74.53 48.99 C 75.01 44.84 70.83 42.63 68.94 39.50 C 65.86 39.58 62.63 40.22 59.67 39.06 C 57.80 38.40 55.77 38.84 53.83 38.74 Z" />
<path fill="#fafaf9" opacity="1.00" d=" M 91.41 36.45 C 97.65 33.49 105.58 33.37 110.88 38.29 C 110.78 40.04 110.76 41.92 109.18 43.02 C 107.68 41.57 106.02 40.29 104.05 39.55 C 101.09 39.79 98.12 39.84 95.17 39.52 C 93.69 41.97 91.12 43.57 89.93 46.21 C 87.89 51.38 91.34 56.99 96.20 59.06 C 100.34 60.26 105.24 59.66 108.09 56.06 C 109.06 57.09 110.08 58.06 111.10 59.05 C 108.52 61.77 104.89 63.96 101.01 63.53 C 98.14 63.35 94.99 64.15 92.45 62.43 C 88.63 61.12 86.76 57.11 85.53 53.57 C 85.40 50.54 85.39 47.50 85.45 44.47 C 86.71 41.31 88.80 38.61 91.41 36.45 Z" />
<path fill="#fafaf9" opacity="1.00" d=" M 119.39 36.36 C 120.12 34.72 122.32 35.61 123.70 35.26 C 123.54 44.72 123.50 54.19 123.72 63.65 C 122.27 63.57 120.82 63.55 119.38 63.59 C 119.60 54.52 119.52 45.43 119.39 36.36 Z" />
<path fill="#fafaf9" opacity="1.00" d=" M 143.39 35.47 C 144.77 35.46 146.14 35.40 147.51 35.29 C 148.36 40.76 151.48 45.51 153.04 50.76 C 154.35 55.17 156.64 59.21 157.98 63.60 C 156.24 63.53 154.48 63.59 152.76 63.29 C 152.12 61.38 151.55 59.44 151.30 57.45 C 147.84 57.47 143.84 56.72 141.77 60.26 C 140.92 59.08 140.28 57.81 140.07 56.35 C 137.59 57.83 136.42 60.60 136.29 63.39 C 134.54 63.48 132.78 63.54 131.02 63.60 C 132.75 58.05 136.00 52.99 137.46 47.27 C 139.57 43.33 139.51 38.26 143.39 35.47 M 142.72 45.93 C 142.17 49.40 140.25 52.41 139.39 55.77 C 140.53 55.10 141.59 54.32 142.57 53.43 C 144.54 53.48 146.51 53.51 148.48 53.58 C 148.99 50.24 147.36 47.18 145.41 44.61 C 144.48 42.94 142.82 44.74 142.72 45.93 Z" />
<path fill="#fafaf9" opacity="1.00" d=" M 167.41 35.40 C 168.53 35.38 169.65 35.35 170.78 35.30 C 170.44 43.39 170.92 51.49 170.50 59.58 C 173.90 59.44 177.30 59.58 180.70 59.34 C 180.64 60.78 180.64 62.22 180.70 63.66 C 175.52 63.43 170.32 63.35 165.14 63.72 C 165.40 54.93 165.29 46.12 165.21 37.33 C 165.95 36.69 166.68 36.05 167.41 35.40 Z" />
<path fill="#fafaf9" opacity="1.00" d=" M 224.50 78.49 C 226.84 78.35 229.19 78.36 231.53 78.45 C 236.38 80.66 240.39 84.57 242.56 89.45 C 242.70 92.14 242.71 94.86 242.57 97.55 C 240.66 101.64 237.61 105.44 233.56 107.51 C 229.85 107.54 226.15 107.56 222.45 107.48 C 219.19 106.01 217.09 102.92 214.50 100.57 C 212.70 96.73 213.78 92.46 213.26 88.40 C 214.83 87.18 216.25 85.78 217.48 84.23 C 220.05 84.26 222.50 84.81 224.74 86.10 C 224.73 86.75 224.69 88.04 224.68 88.68 C 223.22 88.65 221.77 88.65 220.32 88.63 C 219.36 89.47 218.41 90.32 217.47 91.18 C 216.93 96.40 219.77 101.84 224.97 103.41 C 227.76 103.21 230.81 104.08 233.27 102.38 C 236.73 100.67 237.85 96.54 237.30 92.98 C 238.13 88.56 234.56 83.81 230.04 83.66 C 225.46 84.12 221.26 81.95 216.63 82.64 C 219.17 81.11 221.94 80.00 224.50 78.49 Z" />
<path fill="#fafaf9" opacity="1.00" d=" M 292.16 79.27 C 293.58 78.13 295.47 78.43 297.17 78.21 C 293.85 82.73 291.31 88.11 286.33 91.08 C 290.35 96.49 294.31 101.93 298.15 107.48 C 296.17 107.50 294.20 107.54 292.24 107.59 C 291.56 106.38 290.92 105.12 289.95 104.12 C 287.24 101.28 286.08 97.20 282.59 95.08 C 282.50 99.26 282.46 103.44 282.65 107.62 C 281.22 107.56 279.80 107.55 278.38 107.60 C 278.57 98.20 278.57 88.79 278.38 79.40 C 279.80 79.45 281.23 79.44 282.66 79.38 C 282.45 82.58 282.51 85.79 282.59 89.00 C 286.63 86.54 287.96 81.52 292.16 79.27 Z" />
<path fill="#fafaf9" opacity="1.00" d=" M 28.43 79.36 C 30.60 79.53 32.78 79.46 34.94 79.21 C 37.06 82.76 37.12 87.16 34.87 90.66 C 32.74 90.52 30.59 90.48 28.45 90.53 C 27.48 89.51 26.47 88.53 25.43 87.58 C 25.46 85.87 25.43 84.17 25.36 82.46 C 26.42 81.47 27.45 80.43 28.43 79.36 Z" />
<path fill="#fafaf9" opacity="1.00" d=" M 45.44 79.40 C 47.14 79.45 48.85 79.45 50.55 79.41 C 51.55 80.47 52.58 81.49 53.65 82.48 C 53.69 85.35 53.41 88.17 51.96 90.71 C 48.64 90.55 45.24 90.73 42.29 88.97 C 42.48 86.79 42.53 84.62 42.44 82.44 C 43.47 81.46 44.47 80.44 45.44 79.40 Z" />
<path fill="#fafaf9" opacity="1.00" d=" M 59.32 81.08 C 61.81 79.48 64.64 79.31 67.51 79.30 C 68.51 80.39 69.56 81.44 70.66 82.43 C 70.57 84.15 70.54 85.87 70.57 87.59 C 69.52 88.53 68.51 89.51 67.54 90.53 C 65.49 90.49 63.44 90.52 61.39 90.63 C 60.75 89.93 60.09 89.24 59.42 88.56 C 59.52 86.06 59.53 83.57 59.32 81.08 Z" />
<path fill="#fafaf9" opacity="1.00" d=" M 95.48 80.39 C 96.05 78.82 98.34 79.68 99.65 79.33 C 104.55 84.58 106.21 92.39 112.22 96.66 C 112.28 90.88 112.40 85.09 112.14 79.31 C 114.00 79.46 115.86 79.48 117.72 79.38 C 117.50 88.81 117.53 98.25 117.71 107.68 C 116.27 107.57 114.83 107.52 113.39 107.52 C 110.54 104.99 108.67 101.63 106.63 98.45 C 104.86 94.98 103.13 91.26 99.65 89.17 C 99.60 95.33 99.48 101.49 99.72 107.65 C 98.27 107.56 96.82 107.55 95.38 107.59 C 95.65 98.53 95.42 89.46 95.48 80.39 Z" />
<path fill="#fafaf9" opacity="1.00" d=" M 126.37 79.38 C 131.12 79.50 135.86 79.60 140.61 79.38 C 140.55 80.79 140.55 82.21 140.60 83.62 C 136.90 83.42 133.19 83.57 129.49 83.42 C 129.63 86.14 129.62 88.86 129.48 91.58 C 133.23 91.43 136.98 91.56 140.74 91.40 C 140.72 91.94 140.69 93.04 140.68 93.58 C 139.97 94.26 139.28 94.94 138.59 95.63 C 135.56 95.44 132.52 95.56 129.49 95.41 C 129.60 97.74 129.60 100.08 129.51 102.41 C 133.24 102.16 136.98 102.36 140.71 102.13 C 140.55 103.96 140.51 105.79 140.58 107.63 C 135.51 107.43 130.44 107.43 125.37 107.63 C 125.60 98.55 125.53 89.45 125.38 80.37 C 125.63 80.12 126.13 79.63 126.37 79.38 Z" />
<path fill="#fafaf9" opacity="1.00" d=" M 148.30 79.34 C 154.89 79.63 161.50 79.51 168.10 79.41 C 167.35 80.83 166.60 82.26 165.88 83.70 C 163.74 83.55 161.59 83.48 159.45 83.38 C 159.70 91.46 159.34 99.55 159.65 107.63 C 158.22 107.56 156.80 107.55 155.38 107.60 C 155.68 99.54 155.33 91.47 155.57 83.40 C 153.15 83.49 150.72 83.51 148.30 83.66 C 148.36 82.22 148.36 80.78 148.30 79.34 Z" />
<path fill="#fafaf9" opacity="1.00" d=" M 174.13 79.44 C 175.63 79.46 177.14 79.46 178.64 79.38 C 180.23 84.45 181.72 89.75 181.48 95.07 C 182.20 95.45 183.62 96.21 184.34 96.59 C 184.00 91.55 187.47 87.22 187.33 82.32 C 188.94 80.90 191.57 77.73 193.52 80.36 C 193.54 82.87 194.63 85.15 195.34 87.51 C 196.01 90.81 196.80 94.26 199.08 96.86 C 200.17 91.72 200.81 86.48 202.54 81.49 C 203.49 79.28 205.94 79.32 207.97 79.22 C 205.30 85.07 205.32 91.63 203.58 97.74 C 202.90 101.07 200.94 104.26 201.85 107.74 C 200.00 107.55 198.15 107.51 196.30 107.59 C 194.97 102.11 192.77 96.83 192.21 91.19 C 191.60 90.66 190.38 89.62 189.77 89.10 C 188.99 94.53 187.78 99.96 185.70 105.05 C 185.72 105.72 185.76 107.07 185.78 107.74 C 184.04 107.56 182.29 107.52 180.54 107.59 C 178.69 102.34 178.38 96.79 176.63 91.52 C 176.49 87.35 174.51 83.57 174.13 79.44 Z" />
<path fill="#fafaf9" opacity="1.00" d=" M 251.49 79.46 C 255.50 79.59 259.52 79.34 263.53 79.57 C 265.84 80.36 267.67 82.14 268.47 84.46 C 268.59 87.15 268.59 89.86 268.48 92.55 C 267.49 95.16 264.97 96.63 263.53 98.92 C 265.17 102.18 267.50 105.04 269.88 107.79 C 268.06 107.57 266.24 107.50 264.42 107.48 C 262.27 105.02 259.33 103.23 257.80 100.28 C 257.16 98.99 255.85 98.30 254.88 97.32 C 254.77 100.79 254.73 104.27 254.94 107.74 C 253.06 107.54 251.16 107.51 249.27 107.61 C 249.53 98.88 249.42 90.13 249.33 81.40 C 250.06 80.76 250.77 80.11 251.49 79.46 M 254.64 83.43 C 254.87 86.61 254.81 89.79 254.80 92.98 C 256.51 93.61 258.12 94.69 260.01 94.66 C 261.50 93.34 262.87 91.90 264.45 90.69 C 264.93 87.93 264.07 85.42 262.08 83.47 C 259.59 83.53 257.11 83.51 254.64 83.43 Z" />
<path fill="#fafaf9" opacity="1.00" d=" M 28.43 96.42 C 30.58 96.52 32.74 96.48 34.89 96.32 C 37.07 99.82 37.09 104.19 34.96 107.71 C 32.79 107.51 30.60 107.47 28.43 107.59 C 27.45 106.54 26.44 105.53 25.41 104.56 C 25.45 102.85 25.45 101.15 25.40 99.44 C 26.45 98.47 27.46 97.46 28.43 96.42 Z" />
<path fill="#fafaf9" opacity="1.00" d=" M 42.24 98.06 C 45.18 96.19 48.61 96.48 51.94 96.25 C 53.50 98.77 53.69 101.63 53.62 104.53 C 52.54 105.49 51.52 106.51 50.54 107.56 C 48.85 107.51 47.15 107.51 45.45 107.58 C 44.49 106.54 43.50 105.53 42.46 104.57 C 42.53 102.40 42.45 100.22 42.24 98.06 Z" />
<path fill="#fafaf9" opacity="1.00" d=" M 59.36 98.12 C 61.86 96.64 64.64 96.27 67.51 96.37 C 68.50 97.43 69.53 98.45 70.60 99.44 C 70.55 101.14 70.55 102.85 70.60 104.56 C 69.53 105.55 68.51 106.57 67.52 107.64 C 64.65 107.71 61.85 107.38 59.34 105.93 C 59.54 103.33 59.54 100.72 59.36 98.12 Z" />
</g>
</svg>
